<svg width="35" height="38" viewBox="0 0 35 38" fill="none" xmlns="http://www.w3.org/2000/svg">
<path d="M34.2967 2.44214C33.2894 1.52969 31.591 -0.0463548 31.103 0.00104518C30.9429 0.0128952 30.6618 0.261745 30.3924 0.609344C30.1152 0.960894 29.8575 1.39934 29.6506 1.79434C29.4437 2.18934 29.2836 2.53299 29.1743 2.76604C29.0533 3.01884 28.9713 3.18869 28.9713 3.18869C28.9713 3.18869 28.3739 4.22359 27.679 5.32959C26.9879 6.43164 26.2305 7.62849 26.086 7.83784C26.047 7.89709 25.5902 8.57254 24.8601 9.78518C24.4814 10.4014 24.1144 11.1163 23.6732 11.93C23.2359 12.7437 22.7479 13.6562 22.2208 14.6476C21.6937 15.6391 21.1276 16.7016 20.5342 17.8234C19.9368 18.9294 19.3121 20.0907 18.6679 21.2836C17.3834 23.6694 16.0404 26.1856 14.7402 28.6622C14.3303 29.4483 13.9204 30.2304 13.5377 30.9572C13.0966 31.7946 12.8194 32.5332 12.5734 33.1613C12.5578 33.2008 12.5461 33.2324 12.5343 33.2719C12.4172 33.1573 12.2923 33.0349 12.1791 32.9243C11.5622 32.316 10.9883 31.759 10.4651 31.2416C9.41094 30.2146 8.54029 29.3653 7.84533 28.6899C6.44761 27.3429 5.73703 26.6872 5.64723 26.6161C4.99132 26.1026 2.66048 23.8037 1.53215 23.4759C0.981648 23.3139 -0.170108 24.3449 0.0212009 24.9729C0.134424 25.3363 1.13391 26.5134 1.60633 27.0941C1.66489 27.1573 2.41841 27.971 3.99573 29.6774C4.7883 30.5345 5.78779 31.6129 7.00982 32.9322C7.62279 33.5918 8.29432 34.3147 9.02442 35.0968C9.39532 35.4878 9.77794 35.8986 10.1762 36.3213C10.3831 36.5345 10.59 36.7558 10.8048 36.977C10.9219 37.0955 11.039 37.214 11.16 37.3364L11.3592 37.53C11.5427 37.6998 11.7457 37.8578 11.9565 38L15.6577 36.3805C15.6538 36.4161 15.646 36.4556 15.6343 36.4911C15.6304 36.503 15.6421 36.4753 15.646 36.4674C15.6617 36.4279 15.6773 36.3884 15.6968 36.345C15.7436 36.2344 15.7944 36.1159 15.8491 35.9934C15.9701 35.7288 16.0989 35.4404 16.2356 35.1363C16.38 34.8321 16.5362 34.5043 16.6963 34.1646C16.8603 33.8328 17.0281 33.4891 17.1843 33.2363C18.0628 31.7393 19.0701 30.0289 20.1047 28.2751C21.1276 26.5174 22.174 24.7162 23.1422 23.0493C24.1105 21.3784 24.9889 19.8379 25.6566 18.6095C26.6912 16.7293 27.718 14.8609 28.6902 13.0953C29.6467 11.456 30.7048 9.93133 31.6496 8.53304C32.122 7.83389 32.5671 7.17029 32.9692 6.55409C33.1683 6.24204 33.3557 5.94579 33.5353 5.66929C33.7306 5.35329 33.8906 5.07679 34.0312 4.83584C34.5817 3.87204 34.8589 3.50074 34.9838 3.36249C35.0931 3.22819 34.6246 2.75419 34.2967 2.44214ZM13.9516 34.6307C13.9594 34.6346 13.9633 34.6386 13.9672 34.6425L13.975 34.6544L13.9516 34.6307Z" fill="#F591AF"/>
</svg>
