<svg xmlns="http://www.w3.org/2000/svg" width="228.527" height="38.402" viewBox="0 0 228.527 38.402"><defs><style>.a{fill:#1b9897;stroke:rgba(0,0,0,0);}</style></defs><path class="a" d="M19848.736,21169.076c0-3.189,1.891-5.35,5.02-5.35a5.868,5.868,0,0,1,3.125.818l-.277,1.834a4.822,4.822,0,0,0-2.828-.969c-2.012,0-3.027,1.457-3.027,3.65s1.039,3.674,3.113,3.674a3.463,3.463,0,0,0,1.723-.418v-2.287h-2.08l-.242-1.58h4.133v4.9a6.741,6.741,0,0,1-3.607,1.049C19850.521,21174.4,19848.736,21172.25,19848.736,21169.076Zm40.566,0c0-3.189,1.953-5.332,4.852-5.332a5.4,5.4,0,0,1,2.881.74l-.287,1.863a4.106,4.106,0,0,0-2.5-.91c-1.816,0-2.932,1.395-2.932,3.623,0,2.268,1.188,3.605,3.01,3.605a4.665,4.665,0,0,0,2.6-.863l.264,1.7a5.61,5.61,0,0,1-3.02.881C19891.182,21174.385,19889.3,21172.271,19889.3,21169.076Zm-25.477,1.191h-.893v3.938h-1.967v-10.281h3.189c2.289,0,3.678,1.08,3.678,3.084a2.891,2.891,0,0,1-2.053,2.893l2.738,4.037-2.01.369Zm-.9-1.5h.994c1.221,0,1.988-.592,1.988-1.658,0-1.031-.66-1.605-1.9-1.605h-1.084Zm37.465,5.438v-10.281h5.977v1.666h-4.023V21168h3.1l.268,1.7h-3.367v2.832h4.174v1.67Zm-19.77,0v-10.281h5.977v1.666h-4.023V21168h3.1l.271,1.7h-3.371v2.832h4.174v1.67Zm-9.312,0v-10.281h5.973v1.666h-4.02V21168h3.094l.27,1.7h-3.363v2.832h4.166v1.67Zm-17.564-26.91c0-6.516,6.334-10.3,12.514-10.3s12.51,3.781,12.51,10.3-6.33,10.314-12.51,10.314S19853.74,21153.807,19853.74,21147.295Zm4.529-.307c0,5.121,3.184,8.648,8.119,8.648,4.119,0,7.85-2.926,7.85-8.336,0-4.84-3.088-8.354-8.021-8.354A7.806,7.806,0,0,0,19858.27,21146.988Zm-82.922.074c0-5.758,5.594-10.064,11.654-10.064,8.242,0,11.146,5.811,11.146,8.889,0,1.248-.533,1.7-1.76,1.7h-16.336c.432,5.094,4.543,7.762,9.275,7.762a20.4,20.4,0,0,0,7.955-1.664l.727,1.732a25.2,25.2,0,0,1-10.705,2.176C19780.941,21157.588,19775.348,21154.061,19775.348,21147.063Zm4.719-1.406h10.689c2.109,0,2.809-.6,2.809-1.576,0-2.363-2.525-5.086-6.525-5.086C19782.729,21138.994,19780.424,21142.254,19780.066,21145.656Zm-90.02,1.926H19681l.93-1.926h8.236c.883-5.377,6.391-8.658,11.537-8.658,8.232,0,11.141,5.811,11.141,8.889,0,1.248-.533,1.7-1.76,1.7h-16.336c.424,5.094,4.539,7.762,9.268,7.762a20.358,20.358,0,0,0,7.955-1.664l.727,1.732a25.138,25.138,0,0,1-10.7,2.176C19696.107,21157.588,19690.268,21154.586,19690.047,21147.582Zm4.709-1.926h10.693c2.111,0,2.807-.6,2.807-1.576,0-2.363-2.52-5.086-6.525-5.086C19697.42,21138.994,19695.119,21142.254,19694.756,21145.656Zm109.023,6.16c0-4.941,7.979-7.086,15.449-7.086h.434c0-3.107-1.74-5.707-6.266-5.707a18.836,18.836,0,0,0-7.664,1.918l-.74-1.934a24.812,24.812,0,0,1,10.082-2.01c5.484,0,9.1,2.021,9.1,8.389v11.789h-4.514v-2a18.935,18.935,0,0,1-8.881,2.4C19806.207,21157.568,19803.779,21154.99,19803.779,21151.816Zm4.586-.232c0,2.488,1.777,3.74,4.738,3.74,3.59,0,6.559-1.7,6.559-4.723v-4.217h-.176C19815.891,21146.385,19808.365,21147.277,19808.365,21151.584Zm82.945-2.367c-1.021.012-1.527.012-2.387,0v7.955h-4.518v-19.766h8.4c6.9,0,9.2,2.449,9.2,5.117,0,3.607-3.012,5.15-6.01,5.807,2.457,2.574,6.566,6.426,12.006,7.9l-.66,1.277C19899.854,21156.891,19895.92,21153.8,19891.311,21149.217Zm-2.387-9.881v7.994h.92c4.58,0,7.641-.984,7.641-4.131,0-2.607-1.687-3.953-5.8-3.973h-.127C19890.729,21139.227,19889.865,21139.268,19888.924,21139.336Zm-50.318,18.053-10.25-19.979h5.268l7.365,15.326,7.064-15.326h3.088l-9.777,19.979Zm-90.707-.213v-19.766h9.957c8.963,0,12.678,4.885,12.678,9.35,0,5.525-4.625,10.416-13.885,10.416Zm4.521-17.654v13.336c0,2.027.922,2.432,4.07,2.432,5.391,0,9.383-3.432,9.383-8.312,0-4.311-2.914-7.5-9.652-7.541-.285-.008-.557-.008-.811-.008C19754.111,21139.428,19753.221,21139.459,19752.42,21139.521Zm-14.652,17.654-15.6-14.9v14.9h-2.881v-19.766h4.314l14.209,13.725v-13.725h2.883v19.766Z" transform="translate(-19680.203 -21136.498)"/></svg>