<svg width="94" height="76" viewBox="0 0 94 76" fill="none" xmlns="http://www.w3.org/2000/svg">
<path d="M52.7999 47.6346C58.5999 47.6346 63.2999 42.9346 63.2999 37.0346C63.2999 31.1346 58.5999 26.4346 52.7999 26.4346C46.9999 26.4346 42.2 31.1346 42.2 37.0346C42.2 42.9346 46.8999 47.6346 52.7999 47.6346ZM24.6 47.6346C30.4 47.6346 35.1 42.9346 35.1 37.0346C35.1 31.1346 30.4 26.4346 24.6 26.4346C18.8 26.4346 14 31.1346 14 37.0346C14 42.9346 18.8 47.6346 24.6 47.6346ZM24.6 54.7346C16.4 54.7346 0 58.8346 0 67.0346V75.8346H49.2999V67.0346C49.2999 58.8346 32.8 54.7346 24.6 54.7346ZM52.7999 54.7346C51.7999 54.7346 50.6 54.8346 49.4 54.9346C53.5 57.9346 56.2999 61.8346 56.2999 67.0346V75.8346H77.4V67.0346C77.4 58.8346 60.9999 54.7346 52.7999 54.7346Z" fill="#FBBC04"/>
<path d="M80.8009 26.6348C80.9009 26.6348 80.9009 26.2348 80.8009 26.0348C80.6009 25.3348 80.4009 24.0348 80.2009 23.8348C80.0009 23.6348 79.4009 23.8348 79.2009 23.8348C79.0009 23.9348 76.5009 24.5348 76.2009 24.5348C76.2009 24.5348 75.8009 24.5348 75.2009 24.6348C74.6009 24.7348 73.601 24.7348 72.501 24.7348C70.201 24.7348 66.8009 24.5348 63.3009 22.7348C61.6009 21.8348 59.801 20.6348 58.501 18.9348C57.201 17.3348 56.301 15.0348 56.501 12.8348C56.701 10.6348 58.001 8.43485 59.901 6.83485C61.801 5.23485 64.2009 4.13485 66.8009 3.53485C69.3009 2.93485 72.1009 2.73485 74.7009 2.83485C77.3009 2.83485 80.001 3.13485 82.401 3.73485C84.701 4.33485 86.901 5.43485 88.401 7.03485C89.901 8.53485 90.701 10.4348 91.001 12.3348C91.601 16.1348 90.0009 19.2348 88.8009 21.1348C88.2009 22.0348 87.6009 22.8348 87.2009 23.2348C87.0009 23.4348 86.8009 23.6348 86.7009 23.7348C86.6009 23.8348 86.501 23.9348 86.501 23.9348C86.501 23.9348 86.1009 24.2348 85.7009 24.7348C85.2009 25.1348 84.601 25.7348 83.901 26.2348C82.601 27.3348 81.0009 28.2348 80.8009 28.4348C80.6009 28.6348 79.0009 29.6348 77.2009 30.5348C75.4009 31.3348 73.501 32.0348 73.401 32.0348C73.101 32.2348 71.6009 32.5348 71.2009 32.9348C71.0009 33.1348 71.101 34.0348 71.401 34.1348C71.601 34.2348 72.3009 34.1348 72.7009 34.0348C72.8009 34.0348 73.5009 33.8348 74.7009 33.5348C75.9009 33.2348 77.5009 32.7348 79.2009 31.9348C80.9009 31.2348 82.601 30.3348 84.101 29.3348C85.601 28.3348 86.9009 27.3348 87.7009 26.4348C88.0009 26.0348 89.6009 24.7348 91.2009 22.1348C92.0009 20.8348 92.8009 19.1348 93.3009 17.1348C93.8009 15.1348 93.9009 12.7348 93.2009 10.2348C92.6009 7.83485 91.0009 5.33485 88.7009 3.63485C86.4009 1.93485 83.6009 0.934847 80.8009 0.534847C78.0009 0.0348469 75.101 -0.0651531 72.101 0.0348469C69.201 0.134847 66.1009 0.534848 63.2009 1.73485C60.3009 2.83485 57.6009 4.73485 55.8009 7.33485C54.9009 8.63485 54.201 10.1348 53.901 11.7348C53.601 13.3348 53.701 14.9348 54.101 16.4348C54.501 17.9348 55.201 19.2348 56.101 20.4348C57.001 21.5348 58.001 22.5348 59.001 23.3348C61.101 24.9348 63.401 25.9348 65.601 26.6348C70.101 27.8348 73.801 27.5348 76.401 27.2348C77.701 27.0348 78.701 26.9348 79.401 26.7348C80.401 26.7348 80.8009 26.6348 80.8009 26.6348Z" fill="#F591AF"/>
<path d="M64.8015 10.1348C64.8015 10.1348 64.8015 10.5348 64.7015 10.7348C64.7015 11.5348 64.6016 12.7348 64.6016 12.9348C64.6016 13.2348 64.7015 13.1348 64.8015 13.1348C64.8015 13.1348 65.3016 12.9348 65.4016 12.9348C65.5016 12.9348 81.4016 13.1348 81.9016 13.1348C81.9016 13.2348 83.2015 13.0348 83.3015 13.0348C83.4015 12.9348 84.8016 12.5348 84.9016 12.4348C85.0016 12.3348 85.2015 12.3348 85.3015 11.9348C85.3015 11.7348 85.3015 10.9348 85.2015 10.7348C85.2015 10.6348 85.0016 10.5348 85.0016 10.5348C85.0016 10.5348 84.9016 10.5348 84.6016 10.5348C84.4016 10.5348 84.1015 10.5348 83.8015 10.4348C83.2015 10.4348 82.5016 10.3348 82.1016 10.3348C81.9016 10.3348 80.8016 10.3348 79.1016 10.3348C77.4016 10.3348 75.3015 10.2348 73.2015 10.2348C71.1015 10.1348 69.0016 10.1348 67.4016 10.1348C65.8016 10.2348 64.8015 10.1348 64.8015 10.1348Z" fill="#F591AF"/>
<path d="M77.6015 17.7346C77.8015 17.7346 77.8014 17.3346 77.8014 16.7346C77.8014 16.0346 77.8015 15.4346 77.6015 15.4346C77.3015 15.4346 74.3015 15.4346 71.1015 15.4346C68.0015 15.4346 64.8014 15.6346 64.3014 15.9346C64.2014 16.0346 64.0015 16.3346 64.1015 16.9346C64.1015 17.3346 64.3015 17.9346 64.5015 17.9346C64.6015 17.9346 65.3015 17.9346 66.5015 17.8346C67.7015 17.8346 69.3014 17.7346 70.8014 17.7346C74.0014 17.7346 77.3015 17.7346 77.6015 17.7346Z" fill="#F591AF"/>
</svg>
